<?xml version="1.0" encoding="UTF-8"?><svg id="Layer_2" xmlns="http://www.w3.org/2000/svg" viewBox="0 0 695.54 310.79"><defs><style>.cls-1{fill:#fff;}</style></defs><g id="Device"><g id="ACE_Regular_Color"><g id="ACE"><g><path class="cls-1" d="M374.04,193.61c-40.8,0-73.8-33.35-73.24-74.28,.53-38.83,33.57-71.78,72.4-72.21,21.98-.25,41.76,9.19,55.34,24.31,1.21,1.35,3.31,1.35,4.5-.01l27.19-31.35c.97-1.12,.91-2.79-.13-3.84C438.25,13.87,407.77,0,374.04,0c-74.17,0-132.66,67.08-118.13,143.86,8.9,47.05,45.33,84.39,92.21,94.16,30.18,6.29,58.95,1.28,82.87-11.59,2.04-1.1,2.08-4,.08-5.16l-46.75-27c-1.23-.71-2.65-1.04-4.07-.92-2.04,.17-4.11,.26-6.2,.26Z"/><path class="cls-1" d="M376.15,64.08c-33.52-.23-60.77,25.52-60.77,57.31s27,57.32,60.31,57.32c.44,0,.87,0,1.31-.01,.2,0,.4-.01,.59-.01,.38-.01,1.15-.04,1.52-.06,.36-.02,.71-.04,1.06-.07,.63-.05,1.24-.09,1.86-.15,.75,0,1.91,.29,2.56,.65l2.98,1.64,3.36,1.84,40.87,22.43c.08,.05,.17,.1,.26,.15,.46,.22,.99,.33,1.56,.27,1.38-.15,2.38-1.33,2.38-2.65V122.12c0-31.61-26.6-57.8-59.86-58.04Zm-32.94,67.79c-5.42,0-9.81-4.39-9.81-9.81s4.39-9.81,9.81-9.81,9.81,4.39,9.81,9.81-4.39,9.81-9.81,9.81Zm33.51,0c-5.42,0-9.81-4.39-9.81-9.81s4.39-9.81,9.81-9.81,9.81,4.39,9.81,9.81-4.39,9.81-9.81,9.81Zm33.51,0c-5.42,0-9.81-4.39-9.81-9.81s4.39-9.81,9.81-9.81,9.81,4.39,9.81,9.81-4.39,9.81-9.81,9.81Z"/></g><path class="cls-1" d="M123.29,.79C54.37-1.06-1.88,55.22,.05,124.16c1.79,64.28,56.87,117.2,121.17,116.56,24.54-.24,47.3-7.85,66.2-20.72,2.38-1.62,5.6,.06,5.6,2.94v12.68c0,2.82,2.29,5.11,5.11,5.11h36.74c2.82,0,5.11-2.29,5.11-5.11V121.65c0-64.22-52.5-119.14-116.69-120.86Zm-2.66,192.97c-40.84,.35-74.01-32.82-73.66-73.66,.34-39.65,32.74-72.05,72.39-72.39,40.84-.35,74.01,32.82,73.66,73.66-.34,39.65-32.74,72.05-72.39,72.39Z"/><path class="cls-1" d="M688.43,144.22c1.91,0,3.54-1.37,3.86-3.24,1.13-6.58,1.71-13.35,1.71-20.25,0-8.03-.79-15.88-2.31-23.47C680.72,42.22,631.92,.74,573.37,.74s-107.36,41.48-118.33,96.52c-1.52,7.59-2.31,15.44-2.31,23.47s.79,15.9,2.31,23.49c10.98,55.03,59.78,96.51,118.33,96.51,50.75,0,94.17-31.16,111.98-75.3,1.03-2.55-.86-5.34-3.63-5.34h-41.94c-2.76,0-5.36,1.31-6.98,3.53-13.34,18.27-34.99,30.14-59.43,30.14-30.21,0-56.16-18.14-67.42-44.08-1.12-2.58,.74-5.46,3.57-5.46h178.92Zm-178.93-46.96c-2.83,0-4.69-2.88-3.57-5.46,11.27-25.94,37.22-44.09,67.43-44.09s56.16,18.15,67.43,44.09c1.12,2.58-.74,5.46-3.57,5.46h-127.72Z"/></g><g id="Mazama"><g><path class="cls-1" d="M476.44,310.41l-.31-24.06-10.17,15.88h-.21s-10.47-15.45-10.47-15.45l.31,23.9-7.95,.1-.48-36.86,8.74-.11,9.89,15.46,9.49-15.71,8.74-.11,.48,36.86-8.06,.1Z"/><path class="cls-1" d="M520.8,309.84l-3.48-8.22-15.58,.2-3.26,8.31-8.27,.11,15.31-37.33,7.48-.1,16.28,36.92-8.48,.11Zm-11.52-27.23l-4.74,12.01,9.79-.13-5.05-11.89Z"/><path class="cls-1" d="M533.88,309.67l-.08-6.16,19.97-23.85-19.64,.26-.09-7.11,30.06-.39,.08,6.16-19.96,23.85,20.27-.26,.09,7.11-30.7,.4Z"/><path class="cls-1" d="M599.72,308.81l-3.48-8.22-15.58,.2-3.26,8.31-8.27,.11,15.31-37.33,7.48-.1,16.28,36.92-8.48,.11Zm-11.52-27.23l-4.74,12.01,9.79-.13-5.05-11.89Z"/><path class="cls-1" d="M642.7,308.25l-.31-24.06-10.17,15.88h-.21s-10.47-15.45-10.47-15.45l.31,23.9-7.95,.1-.48-36.86,8.74-.11,9.89,15.46,9.49-15.71,8.74-.11,.48,36.86-8.05,.1Z"/><path class="cls-1" d="M687.06,307.68l-3.48-8.22-15.58,.2-3.26,8.31-8.27,.11,15.31-37.33,7.48-.1,16.28,36.92-8.48,.11Zm-11.52-27.23l-4.74,12.01,9.79-.13-5.05-11.89Z"/></g></g><g id="Powered_By"><path class="cls-1" d="M302.64,275.86c-.61,3.09-2.98,6.1-7.17,6.1h-4.33l-1.32,6.81h-3.37l3.7-19.01h7.7c4.19,0,5.38,3.06,4.8,6.1Zm-3.37,0c.28-1.49-.17-3.09-2.1-3.09h-4.25l-1.21,6.15h4.17c1.99,0,3.09-1.52,3.39-3.06Z"/><path class="cls-1" d="M302.74,282.29c.8-4.08,4.47-6.68,8.14-6.68s6.37,2.59,5.57,6.68c-.8,4.08-4.52,6.76-8.19,6.76s-6.32-2.68-5.52-6.76Zm10.46,0c.41-2.21-.91-3.7-2.9-3.7s-3.95,1.49-4.36,3.7c-.44,2.26,.91,3.78,2.9,3.78s3.92-1.52,4.36-3.78Z"/><path class="cls-1" d="M339.49,275.89l-7.15,12.88h-2.7l-1.3-8.8-4.58,8.8h-2.68l-2.26-12.88h3.45l1.1,8.3,4.36-8.3h2.84l1.1,8.3,4.36-8.3h3.45Z"/><path class="cls-1" d="M352.45,283.45h-9.96c0,1.79,1.21,2.7,3.12,2.7,1.41,0,2.84-.55,3.81-1.6l1.79,1.63c-1.54,1.88-4,2.87-6.34,2.87-3.86,0-6.26-2.7-5.46-6.73,.8-4.11,4.39-6.7,8.06-6.7s6.1,2.57,5.3,6.59c-.08,.36-.17,.77-.3,1.24Zm-2.68-2.24c.14-1.77-1.02-2.79-2.81-2.79s-3.26,.83-4.03,2.79h6.84Z"/><path class="cls-1" d="M365.88,276.06l-1.21,3.03c-.66-.39-1.3-.47-1.77-.47-2.1,0-3.7,2.04-4.39,5.66l-.86,4.5h-3.23l2.51-12.88h3.2l-.52,2.76c1.08-2.15,2.68-3.03,4.28-3.03,.77,0,1.57,.17,1.99,.44Z"/><path class="cls-1" d="M378.68,283.45h-9.96c0,1.79,1.21,2.7,3.12,2.7,1.41,0,2.84-.55,3.81-1.6l1.79,1.63c-1.54,1.88-4,2.87-6.34,2.87-3.86,0-6.26-2.7-5.46-6.73,.8-4.11,4.39-6.7,8.06-6.7s6.1,2.57,5.3,6.59c-.08,.36-.17,.77-.3,1.24Zm-2.68-2.24c.14-1.77-1.02-2.79-2.81-2.79s-3.26,.83-4.03,2.79h6.84Z"/><path class="cls-1" d="M397.57,268.99l-3.86,19.78h-3.2l.33-1.74c-1.16,1.38-3.09,2.01-4.66,2.01-3.39,0-5.82-2.62-5.02-6.73,.8-4.14,4.22-6.7,7.61-6.7,1.63,0,3.31,.63,3.92,1.99l1.68-8.61h3.2Zm-5.85,13.3c.44-2.26-1.16-3.7-3.01-3.7-1.99,0-3.92,1.54-4.33,3.7-.41,2.15,.91,3.75,2.9,3.75s4-1.49,4.44-3.75Z"/><path class="cls-1" d="M419.36,282.32c-.8,4.06-4.25,6.73-7.78,6.73-1.85,0-3.53-.83-4.11-2.32l-.39,2.04h-2.4l3.86-19.92h2.4l-1.77,9.05c1.16-1.52,3.14-2.29,5.08-2.29,3.53,0,5.9,2.62,5.1,6.7Zm-2.43-.03c.5-2.59-1.02-4.41-3.39-4.41-2.1,0-4.66,1.63-5.21,4.41-.55,2.76,1.21,4.5,3.5,4.5s4.61-1.93,5.1-4.5Z"/><path class="cls-1" d="M435,275.89l-11.75,19.15h-2.54l3.97-6.62-2.7-12.53h2.59l2.04,9.49,5.79-9.49h2.59Z"/></g></g></g></svg>