<?xml version="1.0" encoding="UTF-8"?><svg id="Layer_2" xmlns="http://www.w3.org/2000/svg" viewBox="0 0 120.7 54.71"><defs><style>.cls-1{fill:#fff;}</style></defs><g id="Device"><g><g><path class="cls-1" d="M0,44.55v-.04c0-4.18,3.26-7.3,7.44-7.3,3.08,0,5.16,1.5,6.34,3.64l-3.86,2.26c-.52-1-1.26-1.7-2.54-1.7-1.58,0-2.62,1.38-2.62,3.06v.04c0,1.82,1.08,3.1,2.62,3.1,1.32,0,2.06-.72,2.64-1.76l3.86,2.18c-1.18,2.08-3.14,3.78-6.62,3.78-3.88,0-7.26-2.92-7.26-7.26Z"/><path class="cls-1" d="M15.04,48.41v-.04c0-2.18,1.62-3.4,4.16-3.4,.92,0,2.1,.2,2.58,.4v-.18c0-1-.62-1.58-2.02-1.58-1.12,0-2.06,.24-3.02,.62l-.8-3.02c1.26-.48,2.7-.8,4.6-.8,2.22,0,3.66,.46,4.62,1.42,.82,.82,1.14,1.88,1.14,3.46v6.22h-4.54v-1.1c-.76,.82-1.78,1.36-3.14,1.36-2.1,0-3.58-1.2-3.58-3.36Zm6.78-.94v-.46c-.26-.1-.66-.18-1.04-.18-.9,0-1.4,.54-1.4,1.22v.04c0,.64,.46,1.06,1.04,1.06,.8,0,1.4-.64,1.4-1.68Z"/><path class="cls-1" d="M28.48,40.59h4.54v2.2c.62-1.48,1.62-2.44,3.42-2.36v4.82h-.48c-1.92,0-2.94,1.06-2.94,3.48v2.78h-4.54v-10.92Z"/><path class="cls-1" d="M38.04,40.59h4.54v1.34c.74-.8,1.58-1.6,3.24-1.6,2.64,0,4.7,2.3,4.7,5.64v.04c0,3.46-2.08,5.76-4.66,5.76-1.66,0-2.58-.72-3.28-1.5v4.44h-4.54v-14.12Zm8.08,5.48v-.04c0-1.1-.78-1.96-1.82-1.96s-1.82,.86-1.82,1.96v.04c0,1.08,.78,1.96,1.82,1.96s1.82-.86,1.82-1.96Z"/><path class="cls-1" d="M51.88,46.11v-.04c0-3.26,2.34-5.74,5.62-5.74,3.88,0,5.68,2.7,5.68,6.02,0,.24,0,.52-.02,.76h-7.02c.32,.96,1.08,1.46,2.06,1.46,.82,0,1.5-.38,2.22-1.12l2.44,1.94c-1.08,1.4-2.62,2.38-4.98,2.38-3.58,0-6-2.26-6-5.66Zm7.16-1c-.1-1.04-.72-1.64-1.52-1.64s-1.3,.64-1.44,1.64h2.96Z"/><path class="cls-1" d="M70.58,37.51h5.36c5.56,0,8.34,2.74,8.34,6.88v.04c0,4.14-2.84,7.08-8.5,7.08h-5.2v-14Zm4.68,4.08v5.84h.78c2.14,0,3.52-.88,3.52-2.9v-.04c0-2.02-1.38-2.9-3.52-2.9h-.78Z"/><path class="cls-1" d="M86.36,37.51h4.88l3,4.92,3-4.92h4.88v14h-4.66v-6.94l-3.22,4.98h-.08l-3.22-4.98v6.94h-4.58v-14Z"/><path class="cls-1" d="M104.42,43.89c1.3-.16,2.04-.76,2.04-1.78h-1.82v-4.6h4.64v3.66c0,3.28-1.9,4.26-4.5,4.38l-.36-1.66Z"/><path class="cls-1" d="M110.35,50.19l1.54-2.58c1.32,.82,2.8,1.22,4.04,1.22,.44,0,.66-.1,.66-.36v-.04c0-.22-.2-.36-1.3-.64-2.76-.68-4.46-1.42-4.46-3.68v-.04c0-2.4,1.92-3.74,4.76-3.74,1.8,0,3.58,.46,4.9,1.26l-1.44,2.7c-1.16-.64-2.56-1.02-3.48-1.02-.44,0-.64,.12-.64,.34v.04c0,.22,.24,.36,1.34,.64,2.76,.68,4.42,1.44,4.42,3.68v.04c0,2.38-1.78,3.76-4.74,3.76-2.12,0-4.04-.54-5.6-1.58Z"/></g><g><g id="ACE"><path class="cls-1" d="M35.49,0c-6.39-.04-11.59,4.87-11.59,10.93s5.15,10.93,11.5,10.93c.08,0,.17,0,.25,0,.04,0,.08,0,.11,0,.07,0,.22,0,.29-.01,.07,0,.13,0,.2-.01,.12,0,.24-.02,.36-.03,.14,0,.36,.06,.49,.12l.57,.31,.64,.35,7.79,4.28s.03,.02,.05,.03c.09,.04,.19,.06,.3,.05,.26-.03,.45-.25,.45-.51V11.07C46.9,5.04,41.83,.04,35.49,0Zm-6.28,12.93c-1.03,0-1.87-.84-1.87-1.87s.84-1.87,1.87-1.87,1.87,.84,1.87,1.87-.84,1.87-1.87,1.87Zm6.39,0c-1.03,0-1.87-.84-1.87-1.87s.84-1.87,1.87-1.87,1.87,.84,1.87,1.87-.84,1.87-1.87,1.87Zm6.39,0c-1.03,0-1.87-.84-1.87-1.87s.84-1.87,1.87-1.87,1.87,.84,1.87,1.87-.84,1.87-1.87,1.87Z"/></g><polygon id="Mazama" class="cls-1" points="83.38 1.05 71.03 18.68 68.46 15 74.72 6.05 76.52 8.6 78.27 6.11 74.72 1.05 64.96 15 71.03 23.67 83.38 6.05 89.64 15 87.07 18.68 83.06 12.95 79.05 18.68 77.57 16.57 75.82 19.07 79.05 23.68 83.06 17.95 87.07 23.67 93.15 15 83.38 1.05"/><g id="Divider"><rect class="cls-1" x="56.89" y=".71" width=".97" height="24.25"/></g></g></g></g></svg>