<?xml version="1.0" encoding="UTF-8"?><svg id="Layer_2" xmlns="http://www.w3.org/2000/svg" viewBox="0 0 651.7 72"><defs><style>.cls-1{fill:#fff;}</style></defs><g id="Device"><path class="cls-1" d="M639.8,3c3.97,0,7.2,3.23,7.2,7.2V46.1s.78,11.31,.78,11.31l.72,10.47-9.43-4.61-11.88-5.81-.06-.04-.71-.42H10.2c-3.97,0-7.2-3.23-7.2-7.2V10.2c0-3.97,3.23-7.2,7.2-7.2H639.8m0-3H10.2C4.57,0,0,4.57,0,10.2V49.8c0,5.63,4.57,10.2,10.2,10.2H625.61s.06,.04,.09,.06l12.06,5.9,12.06,5.9c.19,.09,.38,.14,.58,.14,.72,0,1.36-.61,1.3-1.4l-.92-13.39-.78-11.31V10.2c0-5.63-4.57-10.2-10.2-10.2h0Z"/></g></svg>