<?xml version="1.0" encoding="UTF-8"?><svg id="Layer_2" xmlns="http://www.w3.org/2000/svg" viewBox="0 0 276.85 71.95"><defs><style>.cls-1{fill:#fff;}</style></defs><g id="Device"><path class="cls-1" d="M267,3c2.76,0,5,2.24,5,5V43.72c0,.1,0,.2,.02,.3,0,.03,0,.06,.01,.09l.91,13.25,.72,10.47-9.43-4.61-11.96-5.85s-.04-.02-.06-.03c-.43-.22-.9-.34-1.38-.34H8c-2.76,0-5-2.24-5-5V8c0-2.76,2.24-5,5-5H267m0-3H8C3.58,0,0,3.58,0,8V52c0,4.42,3.58,8,8,8H250.83s.01,0,.02,.01l12.06,5.9,12.06,5.9c.19,.09,.39,.14,.58,.14,.72,0,1.36-.61,1.3-1.4l-.92-13.39-.92-13.39s0-.03,0-.04V8c0-4.42-3.58-8-8-8h0Z"/></g></svg>