<?xml version="1.0" encoding="UTF-8"?><svg id="Layer_2" xmlns="http://www.w3.org/2000/svg" viewBox="0 0 404.85 75"><defs><style>.cls-1{fill:#fff;}</style></defs><g id="Device"><path class="cls-1" d="M402.05,75c-.42,0-.84-.1-1.24-.29l-23.93-11.71H9.5c-5.24,0-9.5-4.26-9.5-9.5V9.5C0,4.26,4.26,0,9.5,0H393.5c5.24,0,9.5,4.26,9.5,9.5V45.21s1.84,26.78,1.84,26.78c.07,1.01-.39,1.96-1.23,2.52-.48,.32-1.02,.48-1.56,.48Zm-23.94-14.74l23.72,11.61-1.83-26.5V9.5c0-3.58-2.92-6.5-6.5-6.5H9.5c-3.58,0-6.5,2.92-6.5,6.5V53.5c0,3.58,2.92,6.5,6.5,6.5H377.67l.44,.26Zm-1.7,2.47s.01,0,.02,.01h-.02Zm1.76-2.44h.02s-.01,0-.02,0Z"/></g></svg>